<svg width="48" height="48" viewBox="0 0 48 48" fill="none" xmlns="http://www.w3.org/2000/svg">
<path d="M45 18.3751H38.625V18.0001C38.625 17.7017 38.5065 17.4156 38.2955 17.2046C38.0845 16.9936 37.7984 16.8751 37.5 16.8751H25.5C25.2016 16.8751 24.9155 16.9936 24.7045 17.2046C24.4935 17.4156 24.375 17.7017 24.375 18.0001V18.3751H11.625V9.75007C11.625 9.05388 11.9016 8.3862 12.3938 7.89392C12.8861 7.40163 13.5538 7.12507 14.25 7.12507C14.8635 7.12394 15.4593 7.33078 15.9401 7.71183C16.4209 8.09289 16.7584 8.62566 16.8975 9.2232C16.9247 9.36997 16.9809 9.50985 17.0627 9.6347C17.1446 9.75955 17.2504 9.86686 17.3741 9.95039C17.4979 10.0339 17.637 10.092 17.7833 10.1212C17.9297 10.1504 18.0805 10.1502 18.2268 10.1206C18.3731 10.091 18.512 10.0326 18.6355 9.94874C18.759 9.86489 18.8646 9.7573 18.9461 9.63224C19.0276 9.50718 19.0834 9.36715 19.1103 9.22031C19.1371 9.07347 19.1345 8.92276 19.1025 8.77695C18.8651 7.66805 18.2531 6.67473 17.3693 5.96411C16.4855 5.25348 15.384 4.86891 14.25 4.87507C12.9571 4.87507 11.7171 5.38869 10.8029 6.30293C9.88861 7.21717 9.375 8.45714 9.375 9.75007V18.3751H3C2.70163 18.3751 2.41548 18.4936 2.2045 18.7046C1.99353 18.9156 1.875 19.2017 1.875 19.5001V27.0001C1.87798 29.6845 2.94567 32.2581 4.84383 34.1562C6.74199 36.0544 9.3156 37.1221 12 37.1251H12.375V40.5001C12.375 40.7984 12.4935 41.0846 12.7045 41.2956C12.9155 41.5065 13.2016 41.6251 13.5 41.6251C13.7984 41.6251 14.0845 41.5065 14.2955 41.2956C14.5065 41.0846 14.625 40.7984 14.625 40.5001V37.1251H33.375V40.5001C33.375 40.7984 33.4935 41.0846 33.7045 41.2956C33.9155 41.5065 34.2016 41.6251 34.5 41.6251C34.7984 41.6251 35.0845 41.5065 35.2955 41.2956C35.5065 41.0846 35.625 40.7984 35.625 40.5001V37.1251H36C38.6844 37.1221 41.258 36.0544 43.1562 34.1562C45.0543 32.2581 46.122 29.6845 46.125 27.0001V19.5001C46.125 19.2017 46.0065 18.9156 45.7955 18.7046C45.5845 18.4936 45.2984 18.3751 45 18.3751ZM26.625 19.1251H36.375V25.8751H26.625V19.1251ZM43.875 27.0001C43.875 29.0887 43.0453 31.0917 41.5685 32.5685C40.0916 34.0454 38.0886 34.8751 36 34.8751H12C9.91142 34.8751 7.90838 34.0454 6.43153 32.5685C4.95468 31.0917 4.125 29.0887 4.125 27.0001V20.6251H24.375V27.0001C24.375 27.2984 24.4935 27.5846 24.7045 27.7956C24.9155 28.0065 25.2016 28.1251 25.5 28.1251H37.5C37.7984 28.1251 38.0845 28.0065 38.2955 27.7956C38.5065 27.5846 38.625 27.2984 38.625 27.0001V20.6251H43.875V27.0001Z" fill="#8F9191"/>
</svg>
