<svg width="48" height="48" viewBox="0 0 48 48" fill="none" xmlns="http://www.w3.org/2000/svg">
<path d="M6 36V26C6 25.408 6.17067 24.7773 6.512 24.108C6.85333 23.4387 7.34933 22.936 8 22.6V18C8 16.872 8.38467 15.9233 9.154 15.154C9.92333 14.3847 10.872 14 12 14H21C21.6893 14 22.278 14.142 22.766 14.426C23.2527 14.7087 23.664 15.1 24 15.6C24.336 15.1 24.7473 14.7087 25.234 14.426C25.722 14.142 26.3107 14 27 14H36C37.128 14 38.0767 14.3847 38.846 15.154C39.6153 15.9233 40 16.872 40 18V22.6C40.652 22.936 41.148 23.4387 41.488 24.108C41.8293 24.7773 42 25.408 42 26V36H40V32H8V36H6ZM25 22H38V18C38 17.4333 37.808 16.9587 37.424 16.576C37.04 16.1933 36.5653 16.0013 36 16H27C26.4333 16 25.9587 16.192 25.576 16.576C25.1933 16.96 25.0013 17.4347 25 18V22ZM10 22H23V18C23 17.4333 22.808 16.9587 22.424 16.576C22.04 16.1933 21.5653 16.0013 21 16H12C11.4333 16 10.9587 16.192 10.576 16.576C10.1933 16.96 10.0013 17.4347 10 18V22ZM8 30H40V26C40 25.4333 39.808 24.9587 39.424 24.576C39.04 24.1933 38.5653 24.0013 38 24H10C9.43333 24 8.95867 24.192 8.576 24.576C8.19333 24.96 8.00133 25.4347 8 26V30Z" fill="#8F9191"/>
</svg>
