<svg width="24" height="24" viewBox="0 0 24 24" fill="none" xmlns="http://www.w3.org/2000/svg">
<path d="M4 14H22M5 22L5.93 21.07C6.46 20.54 6.724 20.276 7.057 20.126C7.39 19.976 7.763 19.952 8.509 19.906L11.762 19.702C13.36 19.602 14.16 19.552 14.863 19.215C15.566 18.877 16.105 18.285 17.183 17.099L20 14H16.5L14.707 15.793C14.587 15.913 14.528 15.972 14.467 16.024C14.1479 16.2955 13.7516 16.4599 13.334 16.494C13.253 16.5 13.169 16.5 13 16.5M13 16.5C13 16.035 13 15.803 12.962 15.61C12.8849 15.2218 12.6944 14.8653 12.4145 14.5855C12.1347 14.3056 11.7782 14.1151 11.39 14.038C11.197 14 10.965 14 10.5 14H9.718C8.673 14 8.15 14 7.661 14.126C7.29615 14.2197 6.94636 14.3645 6.622 14.556C6.186 14.814 5.817 15.183 5.078 15.922L2 19M13 16.5H9.5M5 11.5C5 9.37827 5.84285 7.34344 7.34315 5.84315C8.84344 4.34285 10.8783 3.5 13 3.5M13 3.5C15.1217 3.5 17.1566 4.34285 18.6569 5.84315C20.1571 7.34344 21 9.37827 21 11.5M13 3.5V2" stroke="#8F9191" stroke-width="1.5" stroke-linecap="round" stroke-linejoin="round"/>
</svg>
