<svg width="159" height="58" viewBox="0 0 159 58" fill="none" xmlns="http://www.w3.org/2000/svg">
<path d="M70.517 38V20.5455H74.2074V27.7472H81.6989V20.5455H85.3807V38H81.6989V30.7898H74.2074V38H70.517ZM94.2699 38.2557C92.946 38.2557 91.8011 37.9744 90.8352 37.4119C89.875 36.8437 89.1335 36.054 88.6108 35.0426C88.0881 34.0256 87.8267 32.8466 87.8267 31.5057C87.8267 30.1534 88.0881 28.9716 88.6108 27.9602C89.1335 26.9432 89.875 26.1534 90.8352 25.5909C91.8011 25.0227 92.946 24.7386 94.2699 24.7386C95.5938 24.7386 96.7358 25.0227 97.696 25.5909C98.6619 26.1534 99.4062 26.9432 99.929 27.9602C100.452 28.9716 100.713 30.1534 100.713 31.5057C100.713 32.8466 100.452 34.0256 99.929 35.0426C99.4062 36.054 98.6619 36.8437 97.696 37.4119C96.7358 37.9744 95.5938 38.2557 94.2699 38.2557ZM94.2869 35.4432C94.8892 35.4432 95.392 35.2727 95.7955 34.9318C96.1989 34.5852 96.5028 34.1136 96.7074 33.517C96.9176 32.9205 97.0227 32.2415 97.0227 31.4801C97.0227 30.7188 96.9176 30.0398 96.7074 29.4432C96.5028 28.8466 96.1989 28.375 95.7955 28.0284C95.392 27.6818 94.8892 27.5085 94.2869 27.5085C93.679 27.5085 93.1676 27.6818 92.7528 28.0284C92.3438 28.375 92.0341 28.8466 91.8239 29.4432C91.6193 30.0398 91.517 30.7188 91.517 31.4801C91.517 32.2415 91.6193 32.9205 91.8239 33.517C92.0341 34.1136 92.3438 34.5852 92.7528 34.9318C93.1676 35.2727 93.679 35.4432 94.2869 35.4432ZM110.037 24.9091V27.6364H102.153V24.9091H110.037ZM103.943 21.7727H107.574V33.9773C107.574 34.3125 107.625 34.5739 107.727 34.7614C107.83 34.9432 107.972 35.071 108.153 35.1449C108.341 35.2187 108.557 35.2557 108.801 35.2557C108.972 35.2557 109.142 35.2415 109.312 35.2131C109.483 35.179 109.614 35.1534 109.705 35.1364L110.276 37.8381C110.094 37.8949 109.838 37.9602 109.509 38.0341C109.179 38.1136 108.778 38.1619 108.307 38.179C107.432 38.2131 106.665 38.0966 106.006 37.8295C105.352 37.5625 104.844 37.1477 104.48 36.5852C104.116 36.0227 103.938 35.3125 103.943 34.4545V21.7727ZM118.227 38.2557C116.881 38.2557 115.722 37.983 114.75 37.4375C113.784 36.8864 113.04 36.108 112.517 35.1023C111.994 34.0909 111.733 32.8949 111.733 31.5142C111.733 30.1676 111.994 28.9858 112.517 27.9688C113.04 26.9517 113.776 26.1591 114.724 25.5909C115.679 25.0227 116.798 24.7386 118.082 24.7386C118.946 24.7386 119.75 24.8778 120.494 25.1562C121.244 25.429 121.898 25.8409 122.455 26.392C123.017 26.9432 123.455 27.6364 123.767 28.4716C124.08 29.3011 124.236 30.2727 124.236 31.3864V32.3835H113.182V30.1335H120.818C120.818 29.6108 120.705 29.1477 120.477 28.7443C120.25 28.3409 119.935 28.0256 119.531 27.7983C119.134 27.5653 118.67 27.4489 118.142 27.4489C117.591 27.4489 117.102 27.5767 116.676 27.8324C116.256 28.0824 115.926 28.4205 115.688 28.8466C115.449 29.267 115.327 29.7358 115.321 30.2528V32.392C115.321 33.0398 115.44 33.5994 115.679 34.071C115.923 34.5426 116.267 34.9062 116.71 35.1619C117.153 35.4176 117.679 35.5455 118.287 35.5455C118.69 35.5455 119.06 35.4886 119.395 35.375C119.73 35.2614 120.017 35.0909 120.256 34.8636C120.494 34.6364 120.676 34.358 120.801 34.0284L124.159 34.25C123.989 35.0568 123.639 35.7614 123.111 36.3636C122.588 36.9602 121.912 37.4261 121.082 37.7614C120.259 38.0909 119.307 38.2557 118.227 38.2557ZM130.236 20.5455V38H126.605V20.5455H130.236ZM144.036 28.642L140.712 28.8466C140.656 28.5625 140.533 28.3068 140.346 28.0795C140.158 27.8466 139.911 27.6619 139.604 27.5256C139.303 27.3835 138.942 27.3125 138.522 27.3125C137.96 27.3125 137.485 27.4318 137.099 27.6705C136.712 27.9034 136.519 28.2159 136.519 28.608C136.519 28.9205 136.644 29.1847 136.894 29.4006C137.144 29.6165 137.573 29.7898 138.181 29.9205L140.55 30.3977C141.823 30.6591 142.772 31.0795 143.397 31.6591C144.022 32.2386 144.335 33 144.335 33.9432C144.335 34.8011 144.082 35.554 143.576 36.2017C143.076 36.8494 142.388 37.3551 141.513 37.7188C140.644 38.0767 139.641 38.2557 138.505 38.2557C136.772 38.2557 135.391 37.8949 134.363 37.1733C133.34 36.446 132.741 35.4574 132.565 34.2074L136.136 34.0199C136.244 34.5483 136.505 34.9517 136.92 35.2301C137.335 35.5028 137.866 35.6392 138.513 35.6392C139.15 35.6392 139.661 35.517 140.048 35.2727C140.44 35.0227 140.638 34.7017 140.644 34.3097C140.638 33.9801 140.499 33.7102 140.227 33.5C139.954 33.2841 139.533 33.1193 138.965 33.0057L136.698 32.554C135.42 32.2983 134.468 31.8551 133.843 31.2244C133.224 30.5937 132.914 29.7898 132.914 28.8125C132.914 27.9716 133.141 27.2472 133.596 26.6392C134.056 26.0312 134.701 25.5625 135.531 25.233C136.366 24.9034 137.343 24.7386 138.462 24.7386C140.116 24.7386 141.417 25.0881 142.366 25.7869C143.32 26.4858 143.877 27.4375 144.036 28.642Z" fill="black"/>
<rect width="64" height="58" rx="8" fill="black"/>
<path d="M29.375 46.9091H17V12H29.4773C32.9886 12 36.0114 12.6989 38.5455 14.0966C41.0795 15.483 43.0284 17.4773 44.392 20.0795C45.767 22.6818 46.4545 25.7955 46.4545 29.4205C46.4545 33.0568 45.767 36.1818 44.392 38.7955C43.0284 41.4091 41.0682 43.4148 38.5114 44.8125C35.9659 46.2102 32.9205 46.9091 29.375 46.9091ZM24.3807 40.5852H29.0682C31.25 40.5852 33.0852 40.1989 34.5739 39.4261C36.0739 38.642 37.1989 37.4318 37.9489 35.7955C38.7102 34.1477 39.0909 32.0227 39.0909 29.4205C39.0909 26.8409 38.7102 24.733 37.9489 23.0966C37.1989 21.4602 36.0795 20.2557 34.5909 19.483C33.1023 18.7102 31.267 18.3239 29.0852 18.3239H24.3807V40.5852Z" fill="white"/>
<rect x="53" width="106" height="5" fill="black"/>
<rect x="53" y="53" width="106" height="5" fill="black"/>
</svg>
