<svg width="24" height="24" viewBox="0 0 24 24" fill="none" xmlns="http://www.w3.org/2000/svg">
<path d="M5.14302 14C4.39267 12.7712 3.99707 11.3588 4.00002 9.919C4.00002 5.545 7.58202 2 12 2C16.418 2 20 5.545 20 9.919C20.003 11.3588 19.6074 12.7712 18.857 14" stroke="#8F9191" stroke-width="1.5" stroke-linecap="round"/>
<path d="M14 10C13.387 10.643 12.711 11 12 11C11.289 11 10.613 10.643 10 10" stroke="#8F9191" stroke-width="1.5" stroke-linecap="round"/>
<path d="M15.0001 19L14.8701 19.647C14.7301 20.354 14.6591 20.707 14.5001 20.987C14.2551 21.4186 13.8584 21.7436 13.3871 21.899C13.0821 22 12.7201 22 12.0001 22C11.2801 22 10.9181 22 10.6131 21.9C10.1417 21.7444 9.74494 21.4189 9.50012 20.987C9.34112 20.707 9.27012 20.354 9.13012 19.647L9.00012 19M7.38312 17.098C7.29112 16.822 7.24512 16.683 7.25012 16.571C7.25578 16.4552 7.29487 16.3435 7.36266 16.2494C7.43046 16.1554 7.52405 16.083 7.63212 16.041C7.73612 16 7.88212 16 8.17212 16H15.8281C16.1191 16 16.2641 16 16.3681 16.04C16.4763 16.0821 16.57 16.1546 16.6378 16.2489C16.7057 16.3431 16.7447 16.455 16.7501 16.571C16.7551 16.683 16.7091 16.821 16.6171 17.098C16.4471 17.609 16.3621 17.865 16.2311 18.072C15.9571 18.5046 15.5276 18.8156 15.0311 18.941C14.7931 19 14.5251 19 13.9881 19H10.0121C9.47512 19 9.20612 19 8.96912 18.94C8.47279 18.8149 8.04331 18.5042 7.76912 18.072C7.63812 17.865 7.55312 17.609 7.38312 17.098Z" stroke="#8F9191" stroke-width="1.5"/>
<path d="M12 15.5V11" stroke="#8F9191" stroke-width="1.5" stroke-linecap="round" stroke-linejoin="round"/>
</svg>
