<svg width="24" height="24" viewBox="0 0 24 24" fill="none" xmlns="http://www.w3.org/2000/svg">
<path d="M20 21.02C19.8688 21.0216 19.7388 20.9957 19.6183 20.9441C19.4977 20.8924 19.3893 20.8161 19.3 20.72L3.3 4.72C2.9 4.32 2.9 3.7 3.3 3.3C3.7 2.9 4.32 2.9 4.72 3.3L20.7 19.32C21.1 19.72 21.1 20.34 20.7 20.74C20.5 20.94 20.24 21.04 20 21.04V21.02Z" fill="black"/>
<path d="M4 21.02C3.86885 21.0216 3.73881 20.9958 3.61826 20.9441C3.4977 20.8924 3.38929 20.8161 3.3 20.72C2.9 20.32 2.9 19.7 3.3 19.3L19.3 3.32002C19.7 2.92002 20.32 2.92002 20.72 3.32002C21.12 3.72002 21.12 4.34002 20.72 4.74002L4.7 20.72C4.5 20.92 4.24 21.02 4 21.02Z" fill="black"/>
</svg>
