<svg width="24" height="24" viewBox="0 0 24 24" fill="none" xmlns="http://www.w3.org/2000/svg">
<g clip-path="url(#clip0_30_450)">
<path d="M12.6667 2.6665C12.4899 2.6665 12.3203 2.73674 12.1953 2.86177C12.0702 2.98679 12 3.15636 12 3.33317C12 3.50998 12.0702 3.67955 12.1953 3.80457C12.3203 3.9296 12.4899 3.99984 12.6667 3.99984H19.06L12.8933 10.1665C12.8235 10.2263 12.7669 10.2998 12.7268 10.3825C12.6868 10.4652 12.6643 10.5553 12.6608 10.6471C12.6573 10.7389 12.6727 10.8305 12.7062 10.9161C12.7398 11.0016 12.7906 11.0793 12.8556 11.1443C12.9205 11.2092 12.9982 11.2601 13.0838 11.2936C13.1693 11.3271 13.2609 11.3426 13.3527 11.339C13.4445 11.3355 13.5346 11.313 13.6173 11.273C13.7 11.233 13.7736 11.1763 13.8333 11.1065L20 4.93984V11.3332C20 11.51 20.0702 11.6796 20.1953 11.8046C20.3203 11.9296 20.4899 11.9998 20.6667 11.9998C20.8435 11.9998 21.013 11.9296 21.1381 11.8046C21.2631 11.6796 21.3333 11.51 21.3333 11.3332V2.6665H12.6667Z" fill="#8F9191"/>
<path d="M2.66675 12.6667C2.66675 12.4899 2.73699 12.3203 2.86201 12.1953C2.98703 12.0702 3.1566 12 3.33341 12C3.51023 12 3.67979 12.0702 3.80482 12.1953C3.92984 12.3203 4.00008 12.4899 4.00008 12.6667V19.06L10.1667 12.8933C10.2265 12.8235 10.3001 12.7669 10.3828 12.7268C10.4655 12.6868 10.5556 12.6643 10.6474 12.6608C10.7392 12.6573 10.8307 12.6727 10.9163 12.7062C11.0018 12.7398 11.0795 12.7906 11.1445 12.8556C11.2095 12.9205 11.2603 12.9982 11.2938 13.0838C11.3274 13.1693 11.3428 13.2609 11.3393 13.3527C11.3357 13.4445 11.3132 13.5346 11.2732 13.6173C11.2332 13.7 11.1765 13.7736 11.1067 13.8333L4.94008 20H11.3334C11.5102 20 11.6798 20.0702 11.8048 20.1953C11.9298 20.3203 12.0001 20.4899 12.0001 20.6667C12.0001 20.8435 11.9298 21.013 11.8048 21.1381C11.6798 21.2631 11.5102 21.3333 11.3334 21.3333H2.66675V12.6667Z" fill="#8F9191"/>
</g>
<defs>
<clipPath id="clip0_30_450">
<rect width="24" height="24" fill="white"/>
</clipPath>
</defs>
</svg>
