<svg width="48" height="48" viewBox="0 0 48 48" fill="none" xmlns="http://www.w3.org/2000/svg">
<path d="M39.236 42.5C39.236 35.296 31.204 29.44 24 29.44C16.796 29.44 8.76398 35.296 8.76398 42.5M24 22.912C26.309 22.912 28.5234 21.9948 30.156 20.3621C31.7887 18.7294 32.706 16.515 32.706 14.206C32.706 11.897 31.7887 9.68262 30.156 8.04993C28.5234 6.41724 26.309 5.5 24 5.5C21.691 5.5 19.4766 6.41724 17.8439 8.04993C16.2112 9.68262 15.294 11.897 15.294 14.206C15.294 16.515 16.2112 18.7294 17.8439 20.3621C19.4766 21.9948 21.691 22.912 24 22.912Z" stroke="#8F9191" stroke-width="2" stroke-linecap="round" stroke-linejoin="round"/>
</svg>
